<svg width="78" height="78" viewBox="0 0 78 78" fill="none" xmlns="http://www.w3.org/2000/svg">
<rect width="78" height="78" rx="15" fill="white"/>
<circle cx="41" cy="29" r="24" fill="#01FF0B" fill-opacity="0.7"/>
<g filter="url(#filter0_d_549_2)">
<ellipse cx="37.5" cy="32.5" rx="23.5" ry="22.5" fill="url(#paint0_linear_549_2)" shape-rendering="crispEdges"/>
</g>
<g filter="url(#filter1_d_549_2)">
<path d="M14.1261 59.7282C12.5645 60.3126 11.0155 58.8419 11.5181 57.2522L16.1229 42.6864C16.5683 41.2775 18.3353 40.8215 19.4069 41.8389L29.1093 51.0502C30.1809 52.0677 29.8172 53.8559 28.4332 54.3738L14.1261 59.7282Z" fill="url(#paint1_linear_549_2)" fill-opacity="0.5" shape-rendering="crispEdges"/>
</g>
<rect x="42.7731" y="14" width="23.4416" height="7.77496" rx="3.88748" transform="rotate(88.7592 42.7731 14)" fill="white"/>
<path d="M27 35.4667C27 33.5521 28.5521 32 30.4667 32H47.5806C49.4691 32 51 33.5309 51 35.4194V35.4194C51 36.5271 50.4634 37.5662 49.5603 38.2075L41.5832 43.8719C39.8002 45.138 37.4013 45.0985 35.6609 43.7744L28.3677 38.2257C27.5059 37.5701 27 36.5495 27 35.4667V35.4667Z" fill="white"/>
<path d="M15.768 71L14.196 66.012L12.616 70.996H11.764L10.072 65.176H10.816L12.056 69.604L12.208 70.244L12.408 69.604L13.856 65.176H14.58L16.016 69.62L16.2 70.24L16.368 69.604L17.588 65.176H18.308L16.616 71H15.768ZM22.9108 71.076C22.6201 71.1187 22.3988 71.1027 22.2468 71.028C22.0948 70.9533 21.9908 70.82 21.9348 70.628C21.8788 70.4333 21.8508 70.1787 21.8508 69.864V68.752C21.8508 68.2667 21.7841 67.916 21.6508 67.7C21.5175 67.4813 21.2961 67.372 20.9868 67.372C20.7841 67.372 20.5788 67.424 20.3708 67.528C20.1655 67.632 19.9935 67.7947 19.8548 68.016C19.7161 68.2347 19.6468 68.52 19.6468 68.872V71H18.9908V64.976L19.6468 64.896V67.5C19.7828 67.292 19.9868 67.1253 20.2588 67C20.5335 66.872 20.8228 66.808 21.1268 66.808C21.5908 66.808 21.9375 66.9613 22.1668 67.268C22.3961 67.572 22.5108 68.0627 22.5108 68.74V69.72C22.5108 69.9227 22.5148 70.0893 22.5228 70.22C22.5308 70.3507 22.5668 70.4427 22.6308 70.496C22.6948 70.5467 22.8095 70.556 22.9748 70.524L22.9108 71.076ZM25.2974 71.088C24.9641 71.088 24.6721 71.012 24.4214 70.86C24.1734 70.7053 23.9801 70.4907 23.8414 70.216C23.7028 69.9387 23.6334 69.616 23.6334 69.248C23.6334 68.76 23.7294 68.3333 23.9214 67.968C24.1134 67.6027 24.3814 67.3187 24.7254 67.116C25.0721 66.9107 25.4761 66.808 25.9374 66.808C26.2068 66.808 26.4721 66.84 26.7334 66.904C26.9948 66.9653 27.2054 67.048 27.3654 67.152V69.856C27.3654 70.032 27.4108 70.1747 27.5014 70.284C27.5948 70.3907 27.7161 70.444 27.8654 70.444L27.7294 71.016C27.4974 71.016 27.2961 70.9533 27.1254 70.828C26.9548 70.7027 26.8468 70.5387 26.8014 70.336C26.6654 70.5627 26.4601 70.7453 26.1854 70.884C25.9108 71.02 25.6148 71.088 25.2974 71.088ZM25.3974 70.536C25.6614 70.536 25.8908 70.4773 26.0854 70.36C26.2828 70.24 26.4361 70.0787 26.5454 69.876C26.6548 69.6733 26.7094 69.444 26.7094 69.188V67.512C26.6268 67.4693 26.5134 67.436 26.3694 67.412C26.2254 67.3853 26.0774 67.372 25.9254 67.372C25.6028 67.372 25.3201 67.4493 25.0774 67.604C24.8374 67.756 24.6494 67.9693 24.5134 68.244C24.3801 68.5187 24.3134 68.84 24.3134 69.208C24.3134 69.6053 24.4121 69.9267 24.6094 70.172C24.8094 70.4147 25.0721 70.536 25.3974 70.536ZM30.3338 71.032C29.8698 71.032 29.5324 70.9347 29.3218 70.74C29.1111 70.5453 29.0058 70.232 29.0058 69.8V67.324H28.1938V66.896H29.0258V65.808L29.6618 65.62V66.896H31.0098V67.324H29.6618V69.808C29.6618 70.0587 29.7218 70.2413 29.8418 70.356C29.9618 70.468 30.1511 70.524 30.4098 70.524C30.4711 70.524 30.5498 70.516 30.6458 70.5C30.7444 70.484 30.8431 70.464 30.9418 70.44C31.0404 70.416 31.1204 70.392 31.1818 70.368L31.2578 70.86C31.1324 70.9027 30.9751 70.9427 30.7858 70.98C30.5991 71.0147 30.4484 71.032 30.3338 71.032ZM34.031 71.088C33.6763 71.088 33.3097 71.036 32.931 70.932C32.5523 70.8253 32.2283 70.684 31.959 70.508L32.071 69.844C32.247 69.98 32.4443 70.0973 32.663 70.196C32.8843 70.2947 33.1083 70.372 33.335 70.428C33.5643 70.4813 33.7763 70.508 33.971 70.508C34.3843 70.508 34.6883 70.408 34.883 70.208C35.0803 70.008 35.179 69.7373 35.179 69.396C35.179 69.2973 35.1617 69.204 35.127 69.116C35.095 69.028 35.027 68.9413 34.923 68.856C34.8217 68.7707 34.6683 68.684 34.463 68.596C34.2577 68.508 33.983 68.4147 33.639 68.316C33.183 68.1853 32.831 68.0373 32.583 67.872C32.335 67.704 32.1643 67.5133 32.071 67.3C31.9777 67.084 31.9337 66.8387 31.939 66.564C31.9443 66.2573 32.031 65.992 32.199 65.768C32.367 65.544 32.5977 65.372 32.891 65.252C33.187 65.1293 33.5297 65.068 33.919 65.068C34.1937 65.068 34.4843 65.1027 34.791 65.172C35.0977 65.2387 35.4057 65.3693 35.715 65.564L35.507 66.128C35.283 65.9867 35.0377 65.8747 34.771 65.792C34.5043 65.7067 34.247 65.664 33.999 65.664C33.1377 65.664 32.695 65.9493 32.671 66.52C32.663 66.7013 32.691 66.8613 32.755 67C32.8217 67.1387 32.9563 67.2667 33.159 67.384C33.3643 67.4987 33.671 67.6147 34.079 67.732C34.5803 67.876 34.963 68.032 35.227 68.2C35.491 68.368 35.671 68.552 35.767 68.752C35.8657 68.952 35.915 69.1747 35.915 69.42C35.915 69.724 35.8483 70.0027 35.715 70.256C35.5817 70.5093 35.3763 70.712 35.099 70.864C34.8217 71.0133 34.4657 71.088 34.031 71.088ZM38.3131 71.088C37.9797 71.088 37.6877 71.012 37.4371 70.86C37.1891 70.7053 36.9957 70.4907 36.8571 70.216C36.7184 69.9387 36.6491 69.616 36.6491 69.248C36.6491 68.76 36.7451 68.3333 36.9371 67.968C37.1291 67.6027 37.3971 67.3187 37.7411 67.116C38.0877 66.9107 38.4917 66.808 38.9531 66.808C39.2224 66.808 39.4877 66.84 39.7491 66.904C40.0104 66.9653 40.2211 67.048 40.3811 67.152V69.856C40.3811 70.032 40.4264 70.1747 40.5171 70.284C40.6104 70.3907 40.7317 70.444 40.8811 70.444L40.7451 71.016C40.5131 71.016 40.3117 70.9533 40.1411 70.828C39.9704 70.7027 39.8624 70.5387 39.8171 70.336C39.6811 70.5627 39.4757 70.7453 39.2011 70.884C38.9264 71.02 38.6304 71.088 38.3131 71.088ZM38.4131 70.536C38.6771 70.536 38.9064 70.4773 39.1011 70.36C39.2984 70.24 39.4517 70.0787 39.5611 69.876C39.6704 69.6733 39.7251 69.444 39.7251 69.188V67.512C39.6424 67.4693 39.5291 67.436 39.3851 67.412C39.2411 67.3853 39.0931 67.372 38.9411 67.372C38.6184 67.372 38.3357 67.4493 38.0931 67.604C37.8531 67.756 37.6651 67.9693 37.5291 68.244C37.3957 68.5187 37.3291 68.84 37.3291 69.208C37.3291 69.6053 37.4277 69.9267 37.6251 70.172C37.8251 70.4147 38.0877 70.536 38.4131 70.536ZM42.8894 71L41.1734 66.896H41.9014L43.0254 69.656C43.0627 69.7467 43.1027 69.8573 43.1454 69.988C43.188 70.1187 43.2254 70.2387 43.2574 70.348C43.3187 70.1453 43.3654 69.9933 43.3974 69.892C43.4294 69.788 43.4574 69.7093 43.4814 69.656L44.5854 66.896H45.2934L43.5614 71H42.8894ZM47.8119 71.088C47.4066 71.088 47.0439 71 46.7239 70.824C46.4066 70.648 46.1559 70.3987 45.9719 70.076C45.7879 69.7533 45.6959 69.3733 45.6959 68.936C45.6959 68.56 45.7773 68.2107 45.9399 67.888C46.1053 67.5653 46.3426 67.3053 46.6519 67.108C46.9639 66.908 47.3386 66.808 47.7759 66.808C48.0639 66.808 48.3133 66.8613 48.5239 66.968C48.7373 67.072 48.9013 67.2133 49.0159 67.392C49.1333 67.5707 49.1919 67.772 49.1919 67.996C49.1919 68.3213 49.0733 68.5827 48.8359 68.78C48.5986 68.9773 48.2746 69.132 47.8639 69.244C47.4559 69.3533 46.9933 69.444 46.4759 69.516C46.5293 69.7187 46.6239 69.8973 46.7599 70.052C46.8959 70.204 47.0559 70.3227 47.2399 70.408C47.4239 70.4933 47.6146 70.536 47.8119 70.536C48.0893 70.536 48.3439 70.484 48.5759 70.38C48.8106 70.2733 48.9946 70.144 49.1279 69.992L49.4599 70.416C49.2599 70.6213 49.0146 70.7853 48.7239 70.908C48.4359 71.028 48.1319 71.088 47.8119 71.088ZM46.4279 69.04C46.8386 68.9813 47.2026 68.9107 47.5199 68.828C47.8373 68.7453 48.0866 68.6373 48.2679 68.504C48.4493 68.368 48.5399 68.1933 48.5399 67.98C48.5399 67.7987 48.4733 67.652 48.3399 67.54C48.2093 67.428 48.0226 67.372 47.7799 67.372C47.5586 67.372 47.3426 67.4267 47.1319 67.536C46.9239 67.6427 46.7519 67.8053 46.6159 68.024C46.4826 68.24 46.4159 68.5133 46.4159 68.844C46.4159 68.9107 46.4199 68.976 46.4279 69.04ZM50.3132 71V65.176H51.0012V67.816L53.5772 65.176H54.4252L51.7412 67.944L54.5852 71H53.7132L51.0012 68.1V71H50.3132ZM56.6256 71.088C56.2922 71.088 56.0002 71.012 55.7496 70.86C55.5016 70.7053 55.3082 70.4907 55.1696 70.216C55.0309 69.9387 54.9616 69.616 54.9616 69.248C54.9616 68.76 55.0576 68.3333 55.2496 67.968C55.4416 67.6027 55.7096 67.3187 56.0536 67.116C56.4002 66.9107 56.8042 66.808 57.2656 66.808C57.5349 66.808 57.8002 66.84 58.0616 66.904C58.3229 66.9653 58.5336 67.048 58.6936 67.152V69.856C58.6936 70.032 58.7389 70.1747 58.8296 70.284C58.9229 70.3907 59.0442 70.444 59.1936 70.444L59.0576 71.016C58.8256 71.016 58.6242 70.9533 58.4536 70.828C58.2829 70.7027 58.1749 70.5387 58.1296 70.336C57.9936 70.5627 57.7882 70.7453 57.5136 70.884C57.2389 71.02 56.9429 71.088 56.6256 71.088ZM56.7256 70.536C56.9896 70.536 57.2189 70.4773 57.4136 70.36C57.6109 70.24 57.7642 70.0787 57.8736 69.876C57.9829 69.6733 58.0376 69.444 58.0376 69.188V67.512C57.9549 67.4693 57.8416 67.436 57.6976 67.412C57.5536 67.3853 57.4056 67.372 57.2536 67.372C56.9309 67.372 56.6482 67.4493 56.4056 67.604C56.1656 67.756 55.9776 67.9693 55.8416 68.244C55.7082 68.5187 55.6416 68.84 55.6416 69.208C55.6416 69.6053 55.7402 69.9267 55.9376 70.172C56.1376 70.4147 56.4002 70.536 56.7256 70.536ZM60.1619 71V68.204C60.1619 67.972 60.1219 67.7693 60.0419 67.596C59.9619 67.4227 59.8752 67.2587 59.7819 67.104L60.4419 66.896C60.5139 67.0053 60.5792 67.116 60.6379 67.228C60.6965 67.3373 60.7365 67.456 60.7579 67.584C60.8645 67.368 61.0205 67.1853 61.2259 67.036C61.4339 66.884 61.6645 66.808 61.9179 66.808C62.0832 66.808 62.2085 66.816 62.2939 66.832C62.3819 66.848 62.4619 66.8667 62.5339 66.888L62.4779 67.468C62.4432 67.4547 62.3805 67.436 62.2899 67.412C62.1992 67.3853 62.0685 67.372 61.8979 67.372C61.6072 67.372 61.3539 67.4813 61.1379 67.7C60.9245 67.916 60.8179 68.2587 60.8179 68.728V71H60.1619ZM65.0505 71.088C64.6265 71.088 64.2558 71 63.9385 70.824C63.6212 70.6453 63.3732 70.396 63.1945 70.076C63.0185 69.756 62.9305 69.3827 62.9305 68.956C62.9305 68.5267 63.0185 68.1507 63.1945 67.828C63.3705 67.5053 63.6172 67.2547 63.9345 67.076C64.2545 66.8973 64.6252 66.808 65.0465 66.808C65.4652 66.808 65.8305 66.8973 66.1425 67.076C66.4545 67.2547 66.6972 67.504 66.8705 67.824C67.0438 68.144 67.1305 68.5187 67.1305 68.948C67.1305 69.3747 67.0438 69.7493 66.8705 70.072C66.6972 70.392 66.4545 70.6413 66.1425 70.82C65.8305 70.9987 65.4665 71.088 65.0505 71.088ZM65.0505 70.536C65.4718 70.536 65.8105 70.392 66.0665 70.104C66.3225 69.8133 66.4505 69.4307 66.4505 68.956C66.4505 68.4787 66.3212 68.096 66.0625 67.808C65.8065 67.5173 65.4678 67.372 65.0465 67.372C64.6172 67.372 64.2705 67.5187 64.0065 67.812C63.7425 68.1027 63.6105 68.4867 63.6105 68.964C63.6105 69.436 63.7425 69.816 64.0065 70.104C64.2705 70.392 64.6185 70.536 65.0505 70.536Z" fill="black"/>
<defs>
<filter id="filter0_d_549_2" x="10" y="10" width="55" height="53" filterUnits="userSpaceOnUse" color-interpolation-filters="sRGB">
<feFlood flood-opacity="0" result="BackgroundImageFix"/>
<feColorMatrix in="SourceAlpha" type="matrix" values="0 0 0 0 0 0 0 0 0 0 0 0 0 0 0 0 0 0 127 0" result="hardAlpha"/>
<feOffset dy="4"/>
<feGaussianBlur stdDeviation="2"/>
<feComposite in2="hardAlpha" operator="out"/>
<feColorMatrix type="matrix" values="0 0 0 0 0 0 0 0 0 0 0 0 0 0 0 0 0 0 0.25 0"/>
<feBlend mode="normal" in2="BackgroundImageFix" result="effect1_dropShadow_549_2"/>
<feBlend mode="normal" in="SourceGraphic" in2="effect1_dropShadow_549_2" result="shape"/>
</filter>
<filter id="filter1_d_549_2" x="7.4216" y="41.2883" width="26.3113" height="26.5707" filterUnits="userSpaceOnUse" color-interpolation-filters="sRGB">
<feFlood flood-opacity="0" result="BackgroundImageFix"/>
<feColorMatrix in="SourceAlpha" type="matrix" values="0 0 0 0 0 0 0 0 0 0 0 0 0 0 0 0 0 0 127 0" result="hardAlpha"/>
<feOffset dy="4"/>
<feGaussianBlur stdDeviation="2"/>
<feComposite in2="hardAlpha" operator="out"/>
<feColorMatrix type="matrix" values="0 0 0 0 0 0 0 0 0 0 0 0 0 0 0 0 0 0 0.25 0"/>
<feBlend mode="normal" in2="BackgroundImageFix" result="effect1_dropShadow_549_2"/>
<feBlend mode="normal" in="SourceGraphic" in2="effect1_dropShadow_549_2" result="shape"/>
</filter>
<linearGradient id="paint0_linear_549_2" x1="37.5" y1="10" x2="37.5" y2="55" gradientUnits="userSpaceOnUse">
<stop stop-color="#A5FCA8"/>
<stop offset="1" stop-color="#6FCBFE" stop-opacity="0.15"/>
</linearGradient>
<linearGradient id="paint1_linear_549_2" x1="10.2803" y1="61.1674" x2="28.9174" y2="41.5369" gradientUnits="userSpaceOnUse">
<stop stop-color="#0879FD"/>
<stop offset="1" stop-color="#ECE0E0" stop-opacity="0"/>
</linearGradient>
</defs>
</svg>
